<?xml version="1.0" encoding="utf-8"?>
<!-- Generator: Adobe Illustrator 23.0.1, SVG Export Plug-In . SVG Version: 6.00 Build 0)  -->
<svg version="1.1" id="Layer_1" xmlns="http://www.w3.org/2000/svg" xmlns:xlink="http://www.w3.org/1999/xlink" x="0px" y="0px"
	 viewBox="0 0 16.8 20" style="enable-background:new 0 0 16.8 20;" xml:space="preserve">
<style type="text/css">
	.st0{fill:#1EA5AE;}
</style>
<path class="st0" d="M15.7,5L1.1,5C0.5,5,0,5.5,0,6.1v12.9C0,19.5,0.5,20,1.1,20h14.6c0.6,0,1.1-0.5,1.1-1.1V6.1
	C16.8,5.5,16.3,5,15.7,5"/>
<path class="st0" d="M6.5,5H4.9V3.4C4.9,1.2,6.6,0,8.3,0c1.7,0,3.5,1.1,3.6,3.4V5h-1.6V3.4c0-1.3-1-1.8-1.9-1.8
	C7.7,1.6,6.5,2,6.5,3.4V5z"/>
</svg>
