<?xml version="1.0" encoding="utf-8"?>
<!-- Generator: Adobe Illustrator 16.0.4, SVG Export Plug-In . SVG Version: 6.00 Build 0)  -->
<!DOCTYPE svg PUBLIC "-//W3C//DTD SVG 1.1//EN" "http://www.w3.org/Graphics/SVG/1.1/DTD/svg11.dtd">
<svg version="1.1" id="OBJECTS" xmlns="http://www.w3.org/2000/svg" xmlns:xlink="http://www.w3.org/1999/xlink" x="0px" y="0px"
	 width="365.933px" height="365.932px" viewBox="0 0 365.933 365.932" enable-background="new 0 0 365.933 365.932"
	 xml:space="preserve">
<g>
	<path fill="#FFFFFF" d="M364.779,162.434c-0.602-5.385-1.427-10.701-2.485-15.934h-58.653l45.959-39.195
		c-3.883-8.54-8.411-16.724-13.509-24.501l-75.17,63.696h-31.774l94.718-80.259c-2.887-3.479-5.901-6.85-9.034-10.105
		l-94.434,80.056V3.838c-4.678-0.973-9.42-1.771-14.221-2.379v160.975H364.779z"/>
	<path fill="#FFFFFF" d="M206.176,364.473c4.801-0.607,9.543-1.406,14.221-2.379V236.699l89.961,77.582
		c7.105-6.895,13.657-14.355,19.573-22.318l-76.181-65.818h31.788l55.912,48.304c2.04-3.528,3.96-7.133,5.767-10.804l-43.576-37.5
		h57.153c1.263-5.216,2.308-10.516,3.112-15.895h-157.73V364.473z"/>
	<path fill="#FFFFFF" d="M163.536,1.027c-4.811,0.508-9.563,1.205-14.255,2.078l0.034,133.094L52.95,54.244
		c-6.158,6.22-11.872,12.877-17.093,19.924L120.95,146.5h-31.8L24.482,91.484c-2.543,4.396-4.901,8.911-7.079,13.528L66.058,146.5
		H3.64c-1.059,5.232-1.885,10.549-2.486,15.934h162.383V1.027z"/>
	<path fill="#FFFFFF" d="M149.315,362.832c4.681,0.871,9.422,1.566,14.221,2.072V210.25H2.027c0.805,5.379,1.85,10.679,3.111,15.895
		h60.919L19.98,266.188c4.799,9.38,10.387,18.288,16.671,26.643l77.089-66.687h31.814l-95.473,82.583
		c2.402,2.538,4.879,5.005,7.422,7.401l91.812-79.43V362.832z"/>
	<path fill="#BD0034" d="M260.921,146.5l75.17-63.696c-3.771-5.753-7.85-11.284-12.227-16.562L229.146,146.5H260.921z"/>
	<path fill="#BD0034" d="M253.75,226.145l76.181,65.818c4.16-5.602,8.01-11.447,11.52-17.515l-55.912-48.304H253.75z"/>
	<path fill="#BD0034" d="M120.95,146.5L35.857,74.168c-4.104,5.541-7.906,11.32-11.375,17.316L89.15,146.5H120.95z"/>
	<path fill="#BD0034" d="M113.74,226.145l-77.089,66.687c4.176,5.554,8.662,10.86,13.431,15.896l95.473-82.583H113.74z"/>
	<path fill="#1A237B" d="M314.83,56.136c-25.045-26.032-57.722-44.666-94.434-52.298v132.354L314.83,56.136z"/>
	<path fill="#1A237B" d="M149.281,3.105C111.95,10.055,78.605,28.332,52.95,54.244l96.365,81.955L149.281,3.105z"/>
	<path fill="#1A237B" d="M362.294,146.5c-2.767-13.681-7.06-26.808-12.694-39.195L303.641,146.5H362.294z"/>
	<path fill="#1A237B" d="M347.217,263.645c5.825-11.836,10.406-24.393,13.577-37.5h-57.153L347.217,263.645z"/>
	<path fill="#1A237B" d="M149.315,236.699l-91.812,79.43c25.002,23.565,56.638,40.164,91.812,46.703V236.699z"/>
	<path fill="#1A237B" d="M220.396,362.094c34.566-7.186,65.552-24.128,89.961-47.812l-89.961-77.582V362.094z"/>
	<path fill="#1A237B" d="M5.139,226.145c3.399,14.05,8.409,27.471,14.842,40.044l46.077-40.044H5.139z"/>
	<path fill="#1A237B" d="M17.403,105.013C11.244,118.071,6.578,131.971,3.64,146.5h62.418L17.403,105.013z"/>
	<path fill="#BD0034" d="M163.536,364.904c6.385,0.675,12.866,1.027,19.431,1.027c7.862,0,15.607-0.496,23.209-1.459V210.25h157.73
		c1.331-8.902,2.026-18.012,2.026-27.284c0-6.942-0.4-13.79-1.153-20.532H206.176V1.459C198.574,0.497,190.829,0,182.967,0
		c-6.564,0-13.046,0.354-19.431,1.027v161.406H1.153C0.4,169.176,0,176.023,0,182.966c0,9.272,0.696,18.382,2.027,27.284h161.509
		V364.904z"/>
</g>
</svg>
