<?xml version="1.0" encoding="utf-8"?>
<!-- Generator: Adobe Illustrator 16.0.4, SVG Export Plug-In . SVG Version: 6.00 Build 0)  -->
<!DOCTYPE svg PUBLIC "-//W3C//DTD SVG 1.1//EN" "http://www.w3.org/Graphics/SVG/1.1/DTD/svg11.dtd">
<svg version="1.1" id="Layer_1" xmlns="http://www.w3.org/2000/svg" xmlns:xlink="http://www.w3.org/1999/xlink" x="0px" y="0px"
	 width="143.619px" height="143.618px" viewBox="0 0 143.619 143.618" enable-background="new 0 0 143.619 143.618"
	 xml:space="preserve">
<path id="XMLID_21_" fill="#1DA5AE" d="M143.619,71.804C143.619,32.148,111.471,0,71.809,0C32.149,0,0,32.148,0,71.804
	c0,39.657,32.149,71.813,71.809,71.813C111.471,143.618,143.619,111.461,143.619,71.804z"/>
<path id="XMLID_19_" fill="#FFFFFF" d="M78.136,54.799v-6.802c0-3.313,2.211-4.087,3.759-4.087c1.553,0,9.546,0,9.546,0V29.344
	l-13.144-0.058c-14.589,0-17.902,10.87-17.902,17.829v7.685h-8.434v17.015h8.507c0,19.28,0,42.528,0,42.528h17.01
	c0,0,0-23.484,0-42.528h12.625l1.553-17.015H78.136z"/>
</svg>
