<?xml version="1.0" encoding="utf-8"?>
<!-- Generator: Adobe Illustrator 16.0.4, SVG Export Plug-In . SVG Version: 6.00 Build 0)  -->
<!DOCTYPE svg PUBLIC "-//W3C//DTD SVG 1.1//EN" "http://www.w3.org/Graphics/SVG/1.1/DTD/svg11.dtd">
<svg version="1.1" id="Layer_1" xmlns="http://www.w3.org/2000/svg" xmlns:xlink="http://www.w3.org/1999/xlink" x="0px" y="0px"
	 width="143.796px" height="143.811px" viewBox="0 0 143.796 143.811" enable-background="new 0 0 143.796 143.811"
	 xml:space="preserve">
<path fill="#1DA5AE" d="M71.897,0C32.193,0,0,32.193,0,71.913c0,39.705,32.193,71.897,71.897,71.897
	c39.706,0,71.898-32.192,71.898-71.897C143.796,32.193,111.604,0,71.897,0z"/>
<path fill="#FFFFFF" d="M71.897,97.579c14.159,0,25.677-11.514,25.677-25.666c0-14.161-11.518-25.683-25.677-25.683
	c-14.158,0-25.676,11.521-25.676,25.683C46.221,86.065,57.74,97.579,71.897,97.579z M52.449,71.913
	c0-10.732,8.724-19.463,19.448-19.463s19.449,8.73,19.449,19.463c0,10.724-8.725,19.449-19.449,19.449S52.449,82.637,52.449,71.913z
	"/>
<path fill="#FFFFFF" d="M97.506,114.555H46.291c-9.612,0-17.432-7.82-17.432-17.432V46.689c0-9.612,7.82-17.432,17.432-17.432
	h51.215c9.611,0,17.432,7.819,17.432,17.432v50.434C114.938,106.734,107.117,114.555,97.506,114.555z M46.291,35.618
	c-6.104,0-11.072,4.967-11.072,11.071v50.434c0,6.104,4.967,11.071,11.072,11.071h51.215c6.104,0,11.07-4.967,11.07-11.071V46.689
	c0-6.104-4.967-11.071-11.07-11.071H46.291z"/>
<path display="none" fill="#FFFFFF" d="M97.923,43.303c-2.245,0-4.054,1.828-4.054,4.058c0,2.244,1.809,4.049,4.054,4.049
	c2.229,0,4.058-1.805,4.058-4.049C101.98,45.131,100.152,43.303,97.923,43.303z"/>
</svg>
