<?xml version="1.0" encoding="utf-8"?>
<!-- Generator: Adobe Illustrator 16.0.4, SVG Export Plug-In . SVG Version: 6.00 Build 0)  -->
<!DOCTYPE svg PUBLIC "-//W3C//DTD SVG 1.1//EN" "http://www.w3.org/Graphics/SVG/1.1/DTD/svg11.dtd">
<svg version="1.1" id="Layer_1" xmlns="http://www.w3.org/2000/svg" xmlns:xlink="http://www.w3.org/1999/xlink" x="0px" y="0px"
	 width="297.77px" height="65.83px" viewBox="0 0 297.77 65.83" enable-background="new 0 0 297.77 65.83" xml:space="preserve">
<g>
	<g>
		<path fill="#26B1B6" d="M220.121,5.184h-5.291c-1.1,0-2,0.9-2,2v53.648h9.291V7.184C222.121,6.084,221.22,5.184,220.121,5.184z"/>
		<path fill="#F5AF07" d="M212.83,16.184h9.291v15.648h-9.291V16.184z"/>
		<path fill="#F5AF07" d="M212.83,34.184h9.291v2.648h-9.291V34.184z"/>
		<path fill="#F5AF07" d="M212.83,55.184h9.291v1.648h-9.291V55.184z"/>
	</g>
	<g>
		<path fill="#E8E8E8" d="M71.095,32.939c-3.375,0-59.792,0-59.792,0V10.246c0,0,56.167,0,59.792,0
			C67.47,14.358,67.47,28.483,71.095,32.939z"/>
		<path fill="#1CA5B0" d="M70.126,28.422v-0.004H35.38h-6.131h-8.733c-4.088,0-6.147-2.307-6.178-6.921
			c0.031-4.676,2.09-7.015,6.178-7.015h6.317h43.293v-0.011c2.533-0.004,4.586-2.059,4.586-4.593c0-2.537-2.057-4.594-4.594-4.594
			c-0.029,0-0.056,0.008-0.085,0.009V5.286H37.517H21.259C10.42,5.286,5,9.931,5,19.221l0.093,4.738
			c0,9.167,5.388,13.75,16.165,13.75h48.867v-0.006c2.563,0,4.641-2.078,4.641-4.641S72.689,28.422,70.126,28.422z"/>
		<path fill="#454C53" d="M25.083,28.418h-4.567c-4.088,0-6.147-2.307-6.178-6.921c0.031-4.676,2.09-7.015,6.178-7.015h4.567V5.286
			h-3.824C10.42,5.286,5,9.931,5,19.221l0,4.738c0,9.167,5.482,13.75,16.259,13.75h3.824V28.418z"/>
		<polygon fill="#DF0832" points="28.196,35.677 32.583,34.395 36.971,35.677 36.971,31.008 36.971,26.34 32.583,26.34 
			28.196,26.34 28.196,31.008 		"/>
		<circle fill="#1CA5B0" cx="14.063" cy="51.765" r="9.063"/>
	</g>
	<circle fill="#F5AF07" cx="117.59" cy="32.823" r="27.824"/>
	<circle fill="#DF0832" cx="264.945" cy="32.822" r="27.825"/>
	<g>
		<circle fill="#316F86" cx="183.767" cy="51.765" r="9.063"/>
		<path fill="#316F86" d="M167.705,5.184h-5.291c-1.1,0-2,0.9-2,2v53.648h9.291V7.184C169.705,6.084,168.804,5.184,167.705,5.184z"
			/>
		<path fill="#F5AF07" d="M160.414,55.184h9.291v1.648h-9.291V55.184z"/>
		<path fill="#F5AF07" d="M160.414,52.184h9.291v1.648h-9.291V52.184z"/>
		<path fill="#F5AF07" d="M160.414,12.184h9.291v1.648h-9.291V12.184z"/>
		<path fill="#F5AF07" d="M160.414,9.184h9.291v1.648h-9.291V9.184z"/>
		<path fill="#F5AF07" d="M160.414,33.184h9.291v1.648h-9.291V33.184z"/>
		<path fill="#F5AF07" d="M160.414,30.184h9.291v1.648h-9.291V30.184z"/>
	</g>
</g>
</svg>
