<?xml version="1.0" encoding="utf-8"?>
<!-- Generator: Adobe Illustrator 16.0.4, SVG Export Plug-In . SVG Version: 6.00 Build 0)  -->
<!DOCTYPE svg PUBLIC "-//W3C//DTD SVG 1.1//EN" "http://www.w3.org/Graphics/SVG/1.1/DTD/svg11.dtd">
<svg version="1.1" id="Layer_1" xmlns="http://www.w3.org/2000/svg" xmlns:xlink="http://www.w3.org/1999/xlink" x="0px" y="0px"
	 width="143.609px" height="143.613px" viewBox="0 0 143.609 143.613" enable-background="new 0 0 143.609 143.613"
	 xml:space="preserve">
<path id="XMLID_25_" fill="#1DA5AE" d="M143.609,71.81C143.609,32.148,111.46,0,71.806,0C32.148,0,0,32.148,0,71.81
	c0,39.656,32.148,71.804,71.806,71.804C111.46,143.613,143.609,111.466,143.609,71.81z"/>
<path id="XMLID_23_" fill="#FFFFFF" d="M74.08,31.927c-13.582,0.003-27.264,6.105-33.34,18.834c-3.15,6.6-3.767,14.551-1.001,21.401
	c1.174,2.908,3.045,5.548,5.633,7.358c1.03,0.721,2.917,2.079,4.262,1.716c1.369-0.369,1.492-2.33,1.785-3.468
	c0.303-1.177,0.992-2.609,0.346-3.756c-0.861-1.528-2.195-2.644-2.822-4.354c-0.838-2.284-1.212-4.986-1.069-7.402
	c0.447-7.563,4.631-14.537,11.14-18.425c10.086-6.025,27.147-5.08,32.831,6.622c2.839,5.844,2.137,13.11,0.532,19.199
	c-1.483,5.629-4.545,11.898-10.179,14.361c-5.097,2.229-12.515,0.128-12.707-6.312c-0.055-1.847,0.622-3.698,1.145-5.445
	c0.61-2.041,1.289-4.06,1.912-6.097c0.997-3.261,2.234-6.98,1.322-10.4c-1.626-6.098-9.165-5.964-12.863-1.896
	c-2.079,2.287-3.116,5.378-3.33,8.425c-0.159,2.266,0.496,4.506,1.011,6.695c0.212,0.902,0.594,1.783,0.454,2.691
	c-0.197,1.274-0.622,2.553-0.927,3.804c-1.094,4.488-2.188,8.977-3.282,13.464c-0.944,3.873-2.148,7.791-2.712,11.742
	c-0.497,3.481-0.488,7.03-0.225,10.531c0.091,1.208,0.215,2.413,0.372,3.614c0.062,0.478,0.029,1.593,0.415,1.955
	c0.98,0.92,3.065-2.693,3.48-3.272c1.934-2.7,3.695-5.55,5.078-8.573c2-4.372,2.938-9.26,4.155-13.892
	c0.327-1.246,0.654-2.492,0.979-3.738c2.027,3.764,6.941,5.681,10.976,6.028c3.79,0.325,7.778-0.436,11.261-1.93
	c7.02-3.011,12.022-9.238,14.688-16.27c2.878-7.593,3.896-16.767,0.882-24.47c-2.666-6.813-8.112-12.24-14.67-15.374
	c-5.929-2.833-12.244-3.427-18.721-3.367c3.162-0.029,6.332-0.041,9.494-0.001C78.283,31.9,76.18,31.927,74.08,31.927
	C61.063,31.93,93.347,31.927,74.08,31.927z"/>
</svg>
