<?xml version="1.0" encoding="utf-8"?>
<!-- Generator: Adobe Illustrator 16.0.4, SVG Export Plug-In . SVG Version: 6.00 Build 0)  -->
<!DOCTYPE svg PUBLIC "-//W3C//DTD SVG 1.1//EN" "http://www.w3.org/Graphics/SVG/1.1/DTD/svg11.dtd">
<svg version="1.1" id="Layer_2" xmlns="http://www.w3.org/2000/svg" xmlns:xlink="http://www.w3.org/1999/xlink" x="0px" y="0px"
	 width="19px" height="19px" viewBox="0 0 19 19" enable-background="new 0 0 19 19" xml:space="preserve">
<g>
	<path fill="#E5252E" d="M9.5,1C14.188,1,18,4.813,18,9.5c0,4.688-3.812,8.5-8.5,8.5C4.813,18,1,14.188,1,9.5C1,4.813,4.813,1,9.5,1
		 M9.5,0C4.253,0,0,4.253,0,9.5C0,14.746,4.253,19,9.5,19c5.246,0,9.5-4.254,9.5-9.5C19,4.253,14.746,0,9.5,0L9.5,0z"/>
</g>
<g>
	<path fill="#E5252E" d="M19,9.5c0,5.246-4.254,9.5-9.5,9.5C4.253,19,0,14.746,0,9.5C4.438,9.5,12.406,9.5,19,9.5z"/>
</g>
</svg>
