<?xml version="1.0" encoding="utf-8"?>
<!-- Generator: Adobe Illustrator 16.0.4, SVG Export Plug-In . SVG Version: 6.00 Build 0)  -->
<!DOCTYPE svg PUBLIC "-//W3C//DTD SVG 1.1//EN" "http://www.w3.org/Graphics/SVG/1.1/DTD/svg11.dtd">
<svg version="1.1" id="Layer_1" xmlns="http://www.w3.org/2000/svg" xmlns:xlink="http://www.w3.org/1999/xlink" x="0px" y="0px"
	 width="17.866px" height="18px" viewBox="0 0 17.866 18" enable-background="new 0 0 17.866 18" xml:space="preserve">
<path fill-rule="evenodd" clip-rule="evenodd" fill="#4B4A4B" d="M11.485,11.571c-2.819,0-5.104-2.303-5.104-5.143
	c0-2.841,2.285-5.143,5.104-5.143s5.104,2.302,5.104,5.143C16.59,9.269,14.305,11.571,11.485,11.571z M7.652,11.568
	c1.067,0.81,2.395,1.289,3.833,1.289c3.524,0,6.381-2.879,6.381-6.429C17.866,2.878,15.01,0,11.485,0S5.104,2.878,5.104,6.429
	c0,1.449,0.476,2.786,1.279,3.861c-0.392-0.031-0.792,0.105-1.093,0.407l-4.88,4.921c-0.552,0.557-0.543,1.429-0.003,1.973
	c0.543,0.549,1.416,0.543,1.957-0.002l4.881-4.921C7.55,12.361,7.684,11.959,7.652,11.568z"/>
</svg>
