<?xml version="1.0" encoding="utf-8"?>
<!-- Generator: Adobe Illustrator 16.0.4, SVG Export Plug-In . SVG Version: 6.00 Build 0)  -->
<!DOCTYPE svg PUBLIC "-//W3C//DTD SVG 1.1//EN" "http://www.w3.org/Graphics/SVG/1.1/DTD/svg11.dtd">
<svg version="1.1" id="Layer_1" xmlns="http://www.w3.org/2000/svg" xmlns:xlink="http://www.w3.org/1999/xlink" x="0px" y="0px"
	 width="143.618px" height="143.62px" viewBox="0 0 143.618 143.62" enable-background="new 0 0 143.618 143.62"
	 xml:space="preserve">
<path id="XMLID_49_" fill="#1DA5AE" d="M143.618,71.81C143.618,32.159,111.47,0,71.815,0C32.148,0,0,32.159,0,71.81
	c0,39.656,32.148,71.811,71.815,71.811C111.47,143.62,143.618,111.466,143.618,71.81z"/>
<path id="XMLID_47_" fill="#FFFFFF" d="M113.479,50.263c-2.875,1.166-5.955,1.962-9.164,2.341c3.402-2.001,6.053-5.109,7.438-8.826
	c0.087-0.233-0.171-0.445-0.388-0.324c-3.206,1.787-6.725,3.096-10.461,3.818c-3.176-3.337-7.714-5.425-12.74-5.425
	c-9.627,0-17.447,7.694-17.447,17.177c0,1.349,0.156,2.656,0.45,3.916c-14.454-0.718-27.275-7.514-35.882-17.843
	c-0.043-0.052-0.125-0.045-0.159,0.013c-1.446,2.511-2.292,5.422-2.292,8.518c0,5.822,2.951,10.977,7.461,14.085
	c0.088,0.061,0.042,0.201-0.065,0.195c-2.665-0.14-5.177-0.873-7.392-2.056c-0.063-0.034-0.138,0.006-0.133,0.078
	c0.043,0.755,0.289,4.121,1.178,6.286c2.2,5.36,6.939,9.459,12.821,10.624c-1.471,0.383-3.021,0.608-4.608,0.608
	c-1.061,0-2.104-0.105-3.13-0.292c-0.072-0.014-0.134,0.057-0.109,0.127c2.251,6.65,8.512,11.514,15.956,11.763
	c0.1,0.004,0.143,0.129,0.063,0.189c-5.939,4.506-13.357,7.179-21.443,7.179c-1.412,0-2.784-0.079-4.155-0.235
	c7.723,4.871,16.896,7.714,26.747,7.714c13.577,0,24.551-4.682,32.694-11.802c8.217-7.186,13.553-16.854,15.774-26.703
	c0.782-3.464,1.194-6.958,1.194-10.37c0-0.739-0.02-1.484-0.058-2.22c3.157-2.246,5.928-5.004,8.173-8.134
	C113.96,50.444,113.729,50.161,113.479,50.263z"/>
</svg>
