<?xml version="1.0" encoding="utf-8"?>
<!-- Generator: Adobe Illustrator 16.0.4, SVG Export Plug-In . SVG Version: 6.00 Build 0)  -->
<!DOCTYPE svg PUBLIC "-//W3C//DTD SVG 1.1//EN" "http://www.w3.org/Graphics/SVG/1.1/DTD/svg11.dtd">
<svg version="1.1" id="Layer_1" xmlns="http://www.w3.org/2000/svg" xmlns:xlink="http://www.w3.org/1999/xlink" x="0px" y="0px"
	 width="143.615px" height="143.715px" viewBox="0 0 143.615 143.715" enable-background="new 0 0 143.615 143.715"
	 xml:space="preserve">
<path id="XMLID_41_" fill="#1DA5AE" d="M143.615,71.901c0-39.657-32.148-71.805-71.806-71.805C32.149,0.097,0,32.244,0,71.901
	c0,39.656,32.149,71.813,71.81,71.813C111.467,143.715,143.615,111.558,143.615,71.901z"/>
<path fill="#FFFFFF" d="M90.162,98.41H53.457c-9.82,0-17.781-7.961-17.781-17.781V63.194c0-9.82,7.961-17.781,17.781-17.781h36.705
	c9.821,0,17.782,7.961,17.782,17.781v17.435C107.944,90.449,99.983,98.41,90.162,98.41z"/>
<path fill="#1DA5AE" d="M86.496,72.071L62.362,85.108c-0.807,0.436-1.785-0.147-1.785-1.063l-0.011-26.179
	c0-0.919,0.982-1.502,1.789-1.063l24.144,13.142C87.343,70.403,87.341,71.614,86.496,72.071z"/>
</svg>
